066bd616cba2f1a8e9ab997a07d62320 *tests/data/fate/copy-apng.apng
6504575 tests/data/fate/copy-apng.apng
#tb 0: 1/25
#media_type 0: video
#codec_id 0: rawvideo
#dimensions 0: 352x288
#sar 0: 0/1
0,          0,          0,        1,   304128, 0x8b061324
0,          1,          1,        1,   304128, 0x2e257fca
0,          2,          2,        1,   304128, 0xb7d37651
0,          3,          3,        1,   304128, 0x76730c42
0,          4,          4,        1,   304128, 0x6023efee
0,          5,          5,        1,   304128, 0x4dfbb3d5
0,          6,          6,        1,   304128, 0xfd17809a
0,          7,          7,        1,   304128, 0x7b9e1b7c
0,          8,          8,        1,   304128, 0xd8a09d56
0,          9,          9,        1,   304128, 0xc8459aa4
0,         10,         10,        1,   304128, 0x9f56a4d4
0,         11,         11,        1,   304128, 0x227032e0
0,         12,         12,        1,   304128, 0xc2163b17
0,         13,         13,        1,   304128, 0xbbe040d0
0,         14,         14,        1,   304128, 0x8e6d07ac
0,         15,         15,        1,   304128, 0x3462a2b4
0,         16,         16,        1,   304128, 0x3cdbff41
0,         17,         17,        1,   304128, 0xc75dce87
0,         18,         18,        1,   304128, 0x7bf2e7a2
0,         19,         19,        1,   304128, 0x041f240d
0,         20,         20,        1,   304128, 0xfe18a75a
0,         21,         21,        1,   304128, 0x307e3d35
0,         22,         22,        1,   304128, 0x6b044e91
0,         23,         23,        1,   304128, 0x7bbb0f85
0,         24,         24,        1,   304128, 0x719db44d
